# Blender 5.1.1
# www.blender.org
mtllib ShowItem.mtl
o Cylinder
v 0.104396 0.436422 -0.481258
v 0.104396 0.832719 0.407412
v 0.123359 0.434489 -0.480396
v 0.123359 0.830786 0.408274
v 0.141593 0.428766 -0.477844
v 0.141593 0.825063 0.410826
v 0.158398 0.419472 -0.473699
v 0.158398 0.815769 0.414971
v 0.173128 0.406965 -0.468121
v 0.173128 0.803262 0.420548
v 0.185216 0.391724 -0.461325
v 0.185216 0.788021 0.427345
v 0.194199 0.374337 -0.453571
v 0.194199 0.770634 0.435099
v 0.199730 0.355470 -0.445157
v 0.199730 0.751767 0.443512
v 0.201598 0.335849 -0.436408
v 0.201598 0.732146 0.452262
v 0.199730 0.316228 -0.427658
v 0.199730 0.712525 0.461012
v 0.194199 0.297361 -0.419244
v 0.194199 0.693659 0.469425
v 0.185216 0.279974 -0.411491
v 0.185216 0.676271 0.477179
v 0.173128 0.264733 -0.404694
v 0.173128 0.661031 0.483976
v 0.158398 0.252226 -0.399116
v 0.158398 0.648523 0.489553
v 0.141593 0.242932 -0.394972
v 0.141593 0.639229 0.493698
v 0.123359 0.237209 -0.392420
v 0.123359 0.633506 0.496250
v 0.104396 0.235276 -0.391558
v 0.104396 0.631573 0.497112
v 0.085433 0.237209 -0.392420
v 0.085433 0.633506 0.496250
v 0.067198 0.242932 -0.394972
v 0.067198 0.639229 0.493698
v 0.050393 0.252226 -0.399116
v 0.050393 0.648523 0.489553
v 0.035664 0.264733 -0.404694
v 0.035664 0.661031 0.483976
v 0.023575 0.279974 -0.411491
v 0.023575 0.676271 0.477179
v 0.014593 0.297361 -0.419244
v 0.014593 0.693659 0.469425
v 0.009062 0.316228 -0.427658
v 0.009062 0.712525 0.461012
v 0.007194 0.335849 -0.436408
v 0.007194 0.732146 0.452262
v 0.009062 0.355470 -0.445157
v 0.009062 0.751767 0.443512
v 0.014593 0.374337 -0.453571
v 0.014593 0.770634 0.435099
v 0.023575 0.391724 -0.461325
v 0.023575 0.788021 0.427345
v 0.035664 0.406965 -0.468121
v 0.035664 0.803262 0.420548
v 0.050393 0.419472 -0.473699
v 0.050393 0.815769 0.414971
v 0.067198 0.428766 -0.477844
v 0.067198 0.825063 0.410826
v 0.085433 0.434489 -0.480396
v 0.085433 0.830786 0.408274
vn 0.1109 0.9077 -0.4048
vn 0.3250 0.8637 -0.3852
vn 0.5180 0.7812 -0.3484
vn 0.6809 0.6689 -0.2983
vn 0.8098 0.5358 -0.2389
vn 0.9044 0.3897 -0.1738
vn 0.9660 0.2362 -0.1053
vn 0.9962 0.0791 -0.0353
vn 0.9962 -0.0791 0.0353
vn 0.9660 -0.2362 0.1053
vn 0.9044 -0.3897 0.1738
vn 0.8098 -0.5358 0.2389
vn 0.6809 -0.6689 0.2983
vn 0.5180 -0.7812 0.3484
vn 0.3250 -0.8637 0.3852
vn 0.1109 -0.9077 0.4048
vn -0.1109 -0.9077 0.4048
vn -0.3250 -0.8637 0.3852
vn -0.5180 -0.7812 0.3484
vn -0.6809 -0.6689 0.2983
vn -0.8098 -0.5358 0.2389
vn -0.9044 -0.3897 0.1738
vn -0.9660 -0.2362 0.1053
vn -0.9962 -0.0791 0.0353
vn -0.9962 0.0791 -0.0353
vn -0.9660 0.2362 -0.1053
vn -0.9044 0.3897 -0.1738
vn -0.8098 0.5358 -0.2389
vn -0.6809 0.6689 -0.2983
vn -0.5180 0.7812 -0.3484
vn -0.0000 0.4073 0.9133
vn -0.3250 0.8637 -0.3852
vn -0.1109 0.9077 -0.4048
vn -0.0000 -0.4073 -0.9133
vt 1.000000 0.500000
vt 1.000000 1.000000
vt 0.968750 1.000000
vt 0.968750 0.500000
vt 0.937500 1.000000
vt 0.937500 0.500000
vt 0.906250 1.000000
vt 0.906250 0.500000
vt 0.875000 1.000000
vt 0.875000 0.500000
vt 0.843750 1.000000
vt 0.843750 0.500000
vt 0.812500 1.000000
vt 0.812500 0.500000
vt 0.781250 1.000000
vt 0.781250 0.500000
vt 0.750000 1.000000
vt 0.750000 0.500000
vt 0.718750 1.000000
vt 0.718750 0.500000
vt 0.687500 1.000000
vt 0.687500 0.500000
vt 0.656250 1.000000
vt 0.656250 0.500000
vt 0.625000 1.000000
vt 0.625000 0.500000
vt 0.593750 1.000000
vt 0.593750 0.500000
vt 0.562500 1.000000
vt 0.562500 0.500000
vt 0.531250 1.000000
vt 0.531250 0.500000
vt 0.500000 1.000000
vt 0.500000 0.500000
vt 0.468750 1.000000
vt 0.468750 0.500000
vt 0.437500 1.000000
vt 0.437500 0.500000
vt 0.406250 1.000000
vt 0.406250 0.500000
vt 0.375000 1.000000
vt 0.375000 0.500000
vt 0.343750 1.000000
vt 0.343750 0.500000
vt 0.312500 1.000000
vt 0.312500 0.500000
vt 0.281250 1.000000
vt 0.281250 0.500000
vt 0.250000 1.000000
vt 0.250000 0.500000
vt 0.218750 1.000000
vt 0.218750 0.500000
vt 0.187500 1.000000
vt 0.187500 0.500000
vt 0.156250 1.000000
vt 0.156250 0.500000
vt 0.125000 1.000000
vt 0.125000 0.500000
vt 0.093750 1.000000
vt 0.093750 0.500000
vt 0.062500 1.000000
vt 0.062500 0.500000
vt 0.296822 0.485388
vt 0.250000 0.490000
vt 0.203178 0.485388
vt 0.158156 0.471731
vt 0.116663 0.449553
vt 0.080294 0.419706
vt 0.050447 0.383337
vt 0.028269 0.341844
vt 0.014612 0.296822
vt 0.010000 0.250000
vt 0.014612 0.203178
vt 0.028269 0.158156
vt 0.050447 0.116663
vt 0.080294 0.080294
vt 0.116663 0.050447
vt 0.158156 0.028269
vt 0.203178 0.014612
vt 0.250000 0.010000
vt 0.296822 0.014612
vt 0.341844 0.028269
vt 0.383337 0.050447
vt 0.419706 0.080294
vt 0.449553 0.116663
vt 0.471731 0.158156
vt 0.485388 0.203178
vt 0.490000 0.250000
vt 0.485388 0.296822
vt 0.471731 0.341844
vt 0.449553 0.383337
vt 0.419706 0.419706
vt 0.383337 0.449553
vt 0.341844 0.471731
vt 0.031250 1.000000
vt 0.031250 0.500000
vt 0.000000 1.000000
vt 0.000000 0.500000
vt 0.750000 0.490000
vt 0.796822 0.485388
vt 0.841844 0.471731
vt 0.883337 0.449553
vt 0.919706 0.419706
vt 0.949553 0.383337
vt 0.971731 0.341844
vt 0.985388 0.296822
vt 0.990000 0.250000
vt 0.985388 0.203178
vt 0.971731 0.158156
vt 0.949553 0.116663
vt 0.919706 0.080294
vt 0.883337 0.050447
vt 0.841844 0.028269
vt 0.796822 0.014612
vt 0.750000 0.010000
vt 0.703178 0.014612
vt 0.658156 0.028269
vt 0.616663 0.050447
vt 0.580294 0.080294
vt 0.550447 0.116663
vt 0.528269 0.158156
vt 0.514612 0.203178
vt 0.510000 0.250000
vt 0.514612 0.296822
vt 0.528269 0.341844
vt 0.550447 0.383337
vt 0.580294 0.419706
vt 0.616663 0.449553
vt 0.658156 0.471731
vt 0.703178 0.485388
s 0
usemtl Material.002
f 1/1/1 2/2/1 4/3/1 3/4/1
f 3/4/2 4/3/2 6/5/2 5/6/2
f 5/6/3 6/5/3 8/7/3 7/8/3
f 7/8/4 8/7/4 10/9/4 9/10/4
f 9/10/5 10/9/5 12/11/5 11/12/5
f 11/12/6 12/11/6 14/13/6 13/14/6
f 13/14/7 14/13/7 16/15/7 15/16/7
f 15/16/8 16/15/8 18/17/8 17/18/8
f 17/18/9 18/17/9 20/19/9 19/20/9
f 19/20/10 20/19/10 22/21/10 21/22/10
f 21/22/11 22/21/11 24/23/11 23/24/11
f 23/24/12 24/23/12 26/25/12 25/26/12
f 25/26/13 26/25/13 28/27/13 27/28/13
f 27/28/14 28/27/14 30/29/14 29/30/14
f 29/30/15 30/29/15 32/31/15 31/32/15
f 31/32/16 32/31/16 34/33/16 33/34/16
f 33/34/17 34/33/17 36/35/17 35/36/17
f 35/36/18 36/35/18 38/37/18 37/38/18
f 37/38/19 38/37/19 40/39/19 39/40/19
f 39/40/20 40/39/20 42/41/20 41/42/20
f 41/42/21 42/41/21 44/43/21 43/44/21
f 43/44/22 44/43/22 46/45/22 45/46/22
f 45/46/23 46/45/23 48/47/23 47/48/23
f 47/48/24 48/47/24 50/49/24 49/50/24
f 49/50/25 50/49/25 52/51/25 51/52/25
f 51/52/26 52/51/26 54/53/26 53/54/26
f 53/54/27 54/53/27 56/55/27 55/56/27
f 55/56/28 56/55/28 58/57/28 57/58/28
f 57/58/29 58/57/29 60/59/29 59/60/29
f 59/60/30 60/59/30 62/61/30 61/62/30
f 4/63/31 2/64/31 64/65/31 62/66/31 60/67/31 58/68/31 56/69/31 54/70/31 52/71/31 50/72/31 48/73/31 46/74/31 44/75/31 42/76/31 40/77/31 38/78/31 36/79/31 34/80/31 32/81/31 30/82/31 28/83/31 26/84/31 24/85/31 22/86/31 20/87/31 18/88/31 16/89/31 14/90/31 12/91/31 10/92/31 8/93/31 6/94/31
f 61/62/32 62/61/32 64/95/32 63/96/32
f 63/96/33 64/95/33 2/97/33 1/98/33
f 1/99/34 3/100/34 5/101/34 7/102/34 9/103/34 11/104/34 13/105/34 15/106/34 17/107/34 19/108/34 21/109/34 23/110/34 25/111/34 27/112/34 29/113/34 31/114/34 33/115/34 35/116/34 37/117/34 39/118/34 41/119/34 43/120/34 45/121/34 47/122/34 49/123/34 51/124/34 53/125/34 55/126/34 57/127/34 59/128/34 61/129/34 63/130/34
o Cone
v 0.100382 0.827728 0.417509
v 0.119624 0.825947 0.418303
v 0.138126 0.820675 0.420654
v 0.155177 0.812113 0.424473
v 0.170123 0.800590 0.429611
v 0.182388 0.786550 0.435872
v 0.191502 0.770532 0.443016
v 0.197115 0.753151 0.450766
v 0.199010 0.735075 0.458827
v 0.197115 0.717000 0.466888
v 0.191502 0.699619 0.474639
v 0.182388 0.683600 0.481782
v 0.170123 0.669560 0.488043
v 0.155177 0.658037 0.493182
v 0.138126 0.649475 0.497000
v 0.119624 0.644203 0.499351
v 0.100382 0.642423 0.500145
v 0.081141 0.644203 0.499351
v 0.062639 0.649475 0.497000
v 0.045588 0.658037 0.493182
v 0.030642 0.669560 0.488043
v 0.018377 0.683600 0.481782
v 0.009263 0.699619 0.474639
v 0.003650 0.717000 0.466888
v 0.001755 0.735075 0.458827
v 0.003650 0.753151 0.450766
v 0.009263 0.770532 0.443016
v 0.018377 0.786550 0.435872
v 0.030642 0.800590 0.429611
v 0.045588 0.812113 0.424473
v 0.062639 0.820675 0.420654
v 0.081141 0.825947 0.418303
v 0.100382 0.978293 1.004226
vn 0.0994 0.9638 -0.2473
vn 0.2937 0.9274 -0.2315
vn 0.4751 0.8567 -0.2007
vn 0.6362 0.7555 -0.1564
vn 0.7711 0.6287 -0.1008
vn 0.8755 0.4819 -0.0363
vn 0.9464 0.3211 0.0348
vn 0.9823 0.1520 0.1099
vn 0.9823 -0.0198 0.1865
vn 0.9464 -0.1887 0.2621
vn 0.8755 -0.3490 0.3343
vn 0.7711 -0.4951 0.4003
vn 0.6362 -0.6212 0.4575
vn 0.4751 -0.7218 0.5033
vn 0.2937 -0.7920 0.5353
vn 0.0994 -0.8281 0.5517
vn -0.0994 -0.8281 0.5517
vn -0.2937 -0.7920 0.5353
vn -0.4751 -0.7218 0.5033
vn -0.6362 -0.6212 0.4575
vn -0.7711 -0.4951 0.4003
vn -0.8755 -0.3490 0.3343
vn -0.9464 -0.1887 0.2621
vn -0.9823 -0.0198 0.1865
vn -0.9823 0.1520 0.1099
vn -0.9464 0.3211 0.0348
vn -0.8755 0.4819 -0.0363
vn -0.7711 0.6287 -0.1008
vn -0.6362 0.7555 -0.1564
vn -0.4751 0.8567 -0.2007
vn -0.0000 -0.4073 -0.9133
vn -0.2937 0.9274 -0.2315
vn -0.0994 0.9638 -0.2473
vt 0.250000 0.490000
vt 0.250000 0.250000
vt 0.296822 0.485388
vt 0.341844 0.471731
vt 0.383337 0.449553
vt 0.419706 0.419706
vt 0.449553 0.383337
vt 0.471731 0.341844
vt 0.485388 0.296822
vt 0.490000 0.250000
vt 0.485388 0.203178
vt 0.471731 0.158156
vt 0.449553 0.116663
vt 0.419706 0.080294
vt 0.383337 0.050447
vt 0.341844 0.028269
vt 0.296822 0.014612
vt 0.250000 0.010000
vt 0.203178 0.014612
vt 0.158156 0.028269
vt 0.116663 0.050447
vt 0.080294 0.080294
vt 0.050447 0.116663
vt 0.028269 0.158156
vt 0.014612 0.203178
vt 0.010000 0.250000
vt 0.014612 0.296822
vt 0.028269 0.341844
vt 0.050447 0.383337
vt 0.080294 0.419706
vt 0.116663 0.449553
vt 0.158156 0.471731
vt 0.750000 0.490000
vt 0.796822 0.485388
vt 0.841844 0.471731
vt 0.883337 0.449553
vt 0.919706 0.419706
vt 0.949553 0.383337
vt 0.971731 0.341844
vt 0.985388 0.296822
vt 0.990000 0.250000
vt 0.985388 0.203178
vt 0.971731 0.158156
vt 0.949553 0.116663
vt 0.919706 0.080294
vt 0.883337 0.050447
vt 0.841844 0.028269
vt 0.796822 0.014612
vt 0.750000 0.010000
vt 0.703178 0.014612
vt 0.658156 0.028269
vt 0.616663 0.050447
vt 0.580294 0.080294
vt 0.550447 0.116663
vt 0.528269 0.158156
vt 0.514612 0.203178
vt 0.510000 0.250000
vt 0.514612 0.296822
vt 0.528269 0.341844
vt 0.550447 0.383337
vt 0.580294 0.419706
vt 0.616663 0.449553
vt 0.658156 0.471731
vt 0.703178 0.485388
vt 0.203178 0.485388
s 0
usemtl Material.001
f 65/131/35 97/132/35 66/133/35
f 66/133/36 97/132/36 67/134/36
f 67/134/37 97/132/37 68/135/37
f 68/135/38 97/132/38 69/136/38
f 69/136/39 97/132/39 70/137/39
f 70/137/40 97/132/40 71/138/40
f 71/138/41 97/132/41 72/139/41
f 72/139/42 97/132/42 73/140/42
f 73/140/43 97/132/43 74/141/43
f 74/141/44 97/132/44 75/142/44
f 75/142/45 97/132/45 76/143/45
f 76/143/46 97/132/46 77/144/46
f 77/144/47 97/132/47 78/145/47
f 78/145/48 97/132/48 79/146/48
f 79/146/49 97/132/49 80/147/49
f 80/147/50 97/132/50 81/148/50
f 81/148/51 97/132/51 82/149/51
f 82/149/52 97/132/52 83/150/52
f 83/150/53 97/132/53 84/151/53
f 84/151/54 97/132/54 85/152/54
f 85/152/55 97/132/55 86/153/55
f 86/153/56 97/132/56 87/154/56
f 87/154/57 97/132/57 88/155/57
f 88/155/58 97/132/58 89/156/58
f 89/156/59 97/132/59 90/157/59
f 90/157/60 97/132/60 91/158/60
f 91/158/61 97/132/61 92/159/61
f 92/159/62 97/132/62 93/160/62
f 93/160/63 97/132/63 94/161/63
f 94/161/64 97/132/64 95/162/64
f 65/163/65 66/164/65 67/165/65 68/166/65 69/167/65 70/168/65 71/169/65 72/170/65 73/171/65 74/172/65 75/173/65 76/174/65 77/175/65 78/176/65 79/177/65 80/178/65 81/179/65 82/180/65 83/181/65 84/182/65 85/183/65 86/184/65 87/185/65 88/186/65 89/187/65 90/188/65 91/189/65 92/190/65 93/191/65 94/192/65 95/193/65 96/194/65
f 95/162/66 97/132/66 96/195/66
f 96/195/67 97/132/67 65/131/67
o Cube
v 0.003227 0.389499 -0.260740
v 0.003227 0.295117 0.017994
v 0.003227 0.724859 0.464706
v 0.003227 0.540394 0.548575
v 0.205632 0.389499 -0.260740
v 0.205632 0.295117 0.017994
v 0.205632 0.724859 0.464706
v 0.205632 0.540394 0.548575
vn -1.0000 -0.0000 -0.0000
vn -0.0000 0.4139 0.9103
vn 1.0000 -0.0000 -0.0000
vn -0.0000 -0.9472 -0.3207
vn -0.0000 0.9077 -0.4196
vn -0.0000 -0.9077 0.4196
vt 0.375000 0.000000
vt 0.625000 0.000000
vt 0.625000 0.250000
vt 0.375000 0.250000
vt 0.625000 0.500000
vt 0.375000 0.500000
vt 0.625000 0.750000
vt 0.375000 0.750000
vt 0.625000 1.000000
vt 0.375000 1.000000
vt 0.125000 0.500000
vt 0.125000 0.750000
vt 0.875000 0.500000
vt 0.875000 0.750000
s 0
usemtl Material.002
f 98/196/68 99/197/68 101/198/68 100/199/68
f 100/199/69 101/198/69 105/200/69 104/201/69
f 104/201/70 105/200/70 103/202/70 102/203/70
f 102/203/71 103/202/71 99/204/71 98/205/71
f 100/206/72 104/201/72 102/203/72 98/207/72
f 105/200/73 101/208/73 99/209/73 103/202/73
o Cube.001
v -0.248562 0.316547 -0.473803
v -0.248562 0.361986 -0.371909
v -0.248562 0.338162 -0.483443
v -0.248562 0.383601 -0.381548
v 0.012538 0.340056 -0.421085
v 0.012538 0.446398 -0.182621
v 0.012538 0.361672 -0.430724
v 0.012538 0.468013 -0.192260
vn -1.0000 -0.0000 -0.0000
vn -0.0000 0.9133 -0.4073
vn 1.0000 -0.0000 -0.0000
vn -0.0000 -0.9133 0.4073
vn 0.2159 -0.3977 -0.8918
vn -0.6217 0.3190 0.7153
vt 0.375000 0.000000
vt 0.625000 0.000000
vt 0.625000 0.250000
vt 0.375000 0.250000
vt 0.625000 0.500000
vt 0.375000 0.500000
vt 0.625000 0.750000
vt 0.375000 0.750000
vt 0.625000 1.000000
vt 0.375000 1.000000
vt 0.125000 0.500000
vt 0.125000 0.750000
vt 0.875000 0.500000
vt 0.875000 0.750000
s 0
usemtl Material.001
f 106/210/74 107/211/74 109/212/74 108/213/74
f 108/213/75 109/212/75 113/214/75 112/215/75
f 112/215/76 113/214/76 111/216/76 110/217/76
f 110/217/77 111/216/77 107/218/77 106/219/77
f 108/220/78 112/215/78 110/217/78 106/221/78
f 113/214/79 109/222/79 107/223/79 111/216/79
o Cube.002
v 0.085131 0.652243 -0.623505
v 0.085131 0.697682 -0.521611
v 0.108798 0.652194 -0.623483
v 0.108798 0.697633 -0.521589
v 0.084539 0.437290 -0.464445
v 0.084539 0.543631 -0.225982
v 0.108207 0.437241 -0.464423
v 0.108207 0.543582 -0.225960
vn 0.0023 0.9133 -0.4073
vn 1.0000 -0.0021 0.0009
vn -0.0023 -0.9133 0.4073
vn -1.0000 0.0021 -0.0009
vn -0.0005 -0.5948 -0.8039
vn 0.0014 0.8868 0.4621
vt 0.375000 0.000000
vt 0.625000 0.000000
vt 0.625000 0.250000
vt 0.375000 0.250000
vt 0.625000 0.500000
vt 0.375000 0.500000
vt 0.625000 0.750000
vt 0.375000 0.750000
vt 0.625000 1.000000
vt 0.375000 1.000000
vt 0.125000 0.500000
vt 0.125000 0.750000
vt 0.875000 0.500000
vt 0.875000 0.750000
s 0
usemtl Material.001
f 114/224/80 115/225/80 117/226/80 116/227/80
f 116/227/81 117/226/81 121/228/81 120/229/81
f 120/229/82 121/228/82 119/230/82 118/231/82
f 118/231/83 119/230/83 115/232/83 114/233/83
f 116/234/84 120/229/84 118/231/84 114/235/84
f 121/228/85 117/236/85 115/237/85 119/230/85
o Cube.003
v 0.462906 0.332735 -0.481022
v 0.462906 0.378174 -0.379128
v 0.462778 0.311120 -0.471383
v 0.462778 0.356559 -0.369489
v 0.201810 0.357534 -0.428879
v 0.201810 0.463876 -0.190415
v 0.201682 0.335919 -0.419240
v 0.201682 0.442261 -0.180776
vn 1.0000 -0.0049 0.0022
vn -0.0054 -0.9133 0.4073
vn -1.0000 0.0049 -0.0022
vn 0.0054 0.9133 -0.4073
vn -0.2159 -0.3966 -0.8922
vn 0.6217 0.3159 0.7167
vt 0.375000 0.000000
vt 0.625000 0.000000
vt 0.625000 0.250000
vt 0.375000 0.250000
vt 0.625000 0.500000
vt 0.375000 0.500000
vt 0.625000 0.750000
vt 0.375000 0.750000
vt 0.625000 1.000000
vt 0.375000 1.000000
vt 0.125000 0.500000
vt 0.125000 0.750000
vt 0.875000 0.500000
vt 0.875000 0.750000
s 0
usemtl Material.001
f 122/238/86 123/239/86 125/240/86 124/241/86
f 124/241/87 125/240/87 129/242/87 128/243/87
f 128/243/88 129/242/88 127/244/88 126/245/88
f 126/245/89 127/244/89 123/246/89 122/247/89
f 124/248/90 128/243/90 126/245/90 122/249/90
f 129/242/91 125/250/91 123/251/91 127/244/91
o Cone.001
v 0.108308 0.371578 -0.555538
v 0.125595 0.370023 -0.554844
v 0.142217 0.365417 -0.552791
v 0.157537 0.357939 -0.549456
v 0.170964 0.347875 -0.544967
v 0.181984 0.335611 -0.539499
v 0.190172 0.321620 -0.533259
v 0.195215 0.306439 -0.526489
v 0.196917 0.290651 -0.519449
v 0.195215 0.274863 -0.512408
v 0.190172 0.259682 -0.505638
v 0.181984 0.245691 -0.499399
v 0.170964 0.233427 -0.493930
v 0.157537 0.223363 -0.489442
v 0.142217 0.215884 -0.486107
v 0.125595 0.211279 -0.484053
v 0.108308 0.209724 -0.483360
v 0.091022 0.211279 -0.484053
v 0.074399 0.215884 -0.486107
v 0.059080 0.223363 -0.489442
v 0.045652 0.233427 -0.493930
v 0.034633 0.245691 -0.499399
v 0.026444 0.259682 -0.505638
v 0.021402 0.274863 -0.512408
v 0.019699 0.290651 -0.519449
v 0.021402 0.306439 -0.526489
v 0.026444 0.321620 -0.533259
v 0.034633 0.335611 -0.539499
v 0.045652 0.347875 -0.544967
v 0.059080 0.357939 -0.549456
v 0.074399 0.365417 -0.552791
v 0.091022 0.370023 -0.554844
v 0.108308 0.362829 -0.357595
vn 0.0878 0.9952 0.0440
vn 0.2599 0.9639 0.0579
vn 0.4220 0.9026 0.0853
vn 0.5680 0.8135 0.1250
vn 0.6921 0.7002 0.1755
vn 0.7896 0.5669 0.2350
vn 0.8567 0.4188 0.3010
vn 0.8910 0.2616 0.3711
vn 0.8910 0.1013 0.4426
vn 0.8567 -0.0559 0.5127
vn 0.7896 -0.2040 0.5788
vn 0.6921 -0.3373 0.6382
vn 0.5680 -0.4506 0.6887
vn 0.4220 -0.5397 0.7284
vn 0.2599 -0.6010 0.7558
vn 0.0878 -0.6323 0.7697
vn -0.0878 -0.6323 0.7697
vn -0.2599 -0.6010 0.7558
vn -0.4220 -0.5397 0.7284
vn -0.5680 -0.4506 0.6887
vn -0.6921 -0.3373 0.6382
vn -0.7896 -0.2040 0.5788
vn -0.8567 -0.0559 0.5127
vn -0.8910 0.1013 0.4426
vn -0.8910 0.2616 0.3711
vn -0.8567 0.4188 0.3010
vn -0.7896 0.5669 0.2350
vn -0.6921 0.7002 0.1755
vn -0.5680 0.8135 0.1250
vn -0.4220 0.9026 0.0853
vn -0.0000 -0.4073 -0.9133
vn -0.2599 0.9639 0.0579
vn -0.0878 0.9952 0.0440
vt 0.250000 0.490000
vt 0.250000 0.250000
vt 0.296822 0.485388
vt 0.341844 0.471731
vt 0.383337 0.449553
vt 0.419706 0.419706
vt 0.449553 0.383337
vt 0.471731 0.341844
vt 0.485388 0.296822
vt 0.490000 0.250000
vt 0.485388 0.203178
vt 0.471731 0.158156
vt 0.449553 0.116663
vt 0.419706 0.080294
vt 0.383337 0.050447
vt 0.341844 0.028269
vt 0.296822 0.014612
vt 0.250000 0.010000
vt 0.203178 0.014612
vt 0.158156 0.028269
vt 0.116663 0.050447
vt 0.080294 0.080294
vt 0.050447 0.116663
vt 0.028269 0.158156
vt 0.014612 0.203178
vt 0.010000 0.250000
vt 0.014612 0.296822
vt 0.028269 0.341844
vt 0.050447 0.383337
vt 0.080294 0.419706
vt 0.116663 0.449553
vt 0.158156 0.471731
vt 0.750000 0.490000
vt 0.796822 0.485388
vt 0.841844 0.471731
vt 0.883337 0.449553
vt 0.919706 0.419706
vt 0.949553 0.383337
vt 0.971731 0.341844
vt 0.985388 0.296822
vt 0.990000 0.250000
vt 0.985388 0.203178
vt 0.971731 0.158156
vt 0.949553 0.116663
vt 0.919706 0.080294
vt 0.883337 0.050447
vt 0.841844 0.028269
vt 0.796822 0.014612
vt 0.750000 0.010000
vt 0.703178 0.014612
vt 0.658156 0.028269
vt 0.616663 0.050447
vt 0.580294 0.080294
vt 0.550447 0.116663
vt 0.528269 0.158156
vt 0.514612 0.203178
vt 0.510000 0.250000
vt 0.514612 0.296822
vt 0.528269 0.341844
vt 0.550447 0.383337
vt 0.580294 0.419706
vt 0.616663 0.449553
vt 0.658156 0.471731
vt 0.703178 0.485388
vt 0.203178 0.485388
s 0
usemtl Material.003
f 130/252/92 162/253/92 131/254/92
f 131/254/93 162/253/93 132/255/93
f 132/255/94 162/253/94 133/256/94
f 133/256/95 162/253/95 134/257/95
f 134/257/96 162/253/96 135/258/96
f 135/258/97 162/253/97 136/259/97
f 136/259/98 162/253/98 137/260/98
f 137/260/99 162/253/99 138/261/99
f 138/261/100 162/253/100 139/262/100
f 139/262/101 162/253/101 140/263/101
f 140/263/102 162/253/102 141/264/102
f 141/264/103 162/253/103 142/265/103
f 142/265/104 162/253/104 143/266/104
f 143/266/105 162/253/105 144/267/105
f 144/267/106 162/253/106 145/268/106
f 145/268/107 162/253/107 146/269/107
f 146/269/108 162/253/108 147/270/108
f 147/270/109 162/253/109 148/271/109
f 148/271/110 162/253/110 149/272/110
f 149/272/111 162/253/111 150/273/111
f 150/273/112 162/253/112 151/274/112
f 151/274/113 162/253/113 152/275/113
f 152/275/114 162/253/114 153/276/114
f 153/276/115 162/253/115 154/277/115
f 154/277/116 162/253/116 155/278/116
f 155/278/117 162/253/117 156/279/117
f 156/279/118 162/253/118 157/280/118
f 157/280/119 162/253/119 158/281/119
f 158/281/120 162/253/120 159/282/120
f 159/282/121 162/253/121 160/283/121
f 130/284/122 131/285/122 132/286/122 133/287/122 134/288/122 135/289/122 136/290/122 137/291/122 138/292/122 139/293/122 140/294/122 141/295/122 142/296/122 143/297/122 144/298/122 145/299/122 146/300/122 147/301/122 148/302/122 149/303/122 150/304/122 151/305/122 152/306/122 153/307/122 154/308/122 155/309/122 156/310/122 157/311/122 158/312/122 159/313/122 160/314/122 161/315/122
f 160/283/123 162/253/123 161/316/123
f 161/316/124 162/253/124 130/252/124
o Cube.004
v -0.735790 0.771524 0.315277
v -0.636304 0.809662 0.400800
v -0.735790 0.790981 0.306600
v -0.636304 0.829119 0.392123
v 0.105602 0.771524 0.315277
v 0.105602 0.809662 0.400800
v 0.105602 0.790981 0.306600
v 0.105602 0.829119 0.392123
vn -0.6854 0.2966 0.6650
vn -0.0000 0.9133 -0.4073
vn 1.0000 -0.0000 -0.0000
vn -0.0000 -0.9133 0.4073
vn -0.0000 -0.4073 -0.9133
vn -0.0000 0.4073 0.9133
vt 0.375000 0.000000
vt 0.625000 0.000000
vt 0.625000 0.250000
vt 0.375000 0.250000
vt 0.625000 0.500000
vt 0.375000 0.500000
vt 0.625000 0.750000
vt 0.375000 0.750000
vt 0.625000 1.000000
vt 0.375000 1.000000
vt 0.125000 0.500000
vt 0.125000 0.750000
vt 0.875000 0.500000
vt 0.875000 0.750000
s 0
usemtl Material.001
f 163/317/125 164/318/125 166/319/125 165/320/125
f 165/320/126 166/319/126 170/321/126 169/322/126
f 169/322/127 170/321/127 168/323/127 167/324/127
f 167/324/128 168/323/128 164/325/128 163/326/128
f 165/327/129 169/322/129 167/324/129 163/328/129
f 170/321/130 166/329/130 164/330/130 168/323/130
o Cube.005
v 0.960772 0.790981 0.306600
v 0.861286 0.829119 0.392123
v 0.960772 0.771524 0.315277
v 0.861286 0.809662 0.400800
v 0.119380 0.790981 0.306600
v 0.119380 0.829119 0.392123
v 0.119380 0.771524 0.315277
v 0.119380 0.809662 0.400800
vn 0.6854 0.2966 0.6650
vn -0.0000 -0.9133 0.4073
vn -1.0000 -0.0000 -0.0000
vn -0.0000 0.9133 -0.4073
vn -0.0000 -0.4073 -0.9133
vn -0.0000 0.4073 0.9133
vt 0.375000 0.000000
vt 0.625000 0.000000
vt 0.625000 0.250000
vt 0.375000 0.250000
vt 0.625000 0.500000
vt 0.375000 0.500000
vt 0.625000 0.750000
vt 0.375000 0.750000
vt 0.625000 1.000000
vt 0.375000 1.000000
vt 0.125000 0.500000
vt 0.125000 0.750000
vt 0.875000 0.500000
vt 0.875000 0.750000
s 0
usemtl Material.001
f 171/331/131 172/332/131 174/333/131 173/334/131
f 173/334/132 174/333/132 178/335/132 177/336/132
f 177/336/133 178/335/133 176/337/133 175/338/133
f 175/338/134 176/337/134 172/339/134 171/340/134
f 173/341/135 177/336/135 175/338/135 171/342/135
f 178/335/136 174/343/136 172/344/136 176/337/136
o Cube.006
v 0.012522 0.635841 0.505179
v 0.012522 0.638624 0.511301
v 0.190550 0.635841 0.505179
v 0.190550 0.638624 0.511301
v 0.012522 0.550040 0.544189
v 0.012522 0.552823 0.550311
v 0.190550 0.550040 0.544189
v 0.190550 0.552823 0.550311
vn -0.0000 0.9103 -0.4139
vn 1.0000 -0.0000 -0.0000
vn -0.0000 -0.9103 0.4139
vn -1.0000 -0.0000 -0.0000
vn -0.0000 -0.4139 -0.9103
vn -0.0000 0.4139 0.9103
vt 0.375000 0.000000
vt 0.625000 0.000000
vt 0.625000 0.250000
vt 0.375000 0.250000
vt 0.625000 0.500000
vt 0.375000 0.500000
vt 0.625000 0.750000
vt 0.375000 0.750000
vt 0.625000 1.000000
vt 0.375000 1.000000
vt 0.125000 0.500000
vt 0.125000 0.750000
vt 0.875000 0.500000
vt 0.875000 0.750000
s 0
usemtl Material.003
f 179/345/137 180/346/137 182/347/137 181/348/137
f 181/348/138 182/347/138 186/349/138 185/350/138
f 185/350/139 186/349/139 184/351/139 183/352/139
f 183/352/140 184/351/140 180/353/140 179/354/140
f 181/355/141 185/350/141 183/352/141 179/356/141
f 186/349/142 182/357/142 180/358/142 184/351/142
o Cone.002
v 0.104377 0.200471 -0.493486
v 0.122604 0.202104 -0.494230
v 0.140130 0.206941 -0.496437
v 0.156282 0.214796 -0.500019
v 0.170440 0.225368 -0.504841
v 0.182059 0.238249 -0.510716
v 0.190692 0.252944 -0.517419
v 0.196009 0.268890 -0.524692
v 0.197804 0.285473 -0.532256
v 0.196009 0.302057 -0.539820
v 0.190692 0.318003 -0.547093
v 0.182059 0.332698 -0.553796
v 0.170440 0.345579 -0.559671
v 0.156282 0.356151 -0.564492
v 0.140130 0.364006 -0.568075
v 0.122604 0.368843 -0.570281
v 0.104377 0.370476 -0.571026
v 0.086150 0.368843 -0.570281
v 0.068624 0.364006 -0.568075
v 0.052472 0.356151 -0.564492
v 0.038314 0.345579 -0.559671
v 0.026695 0.332698 -0.553796
v 0.018062 0.318003 -0.547093
v 0.012745 0.302057 -0.539820
v 0.010950 0.285473 -0.532256
v 0.012745 0.268890 -0.524692
v 0.018062 0.252944 -0.517419
v 0.026695 0.238249 -0.510716
v 0.038314 0.225368 -0.504841
v 0.052472 0.214796 -0.500019
v 0.068624 0.206941 -0.496437
v 0.086150 0.202104 -0.494230
v 0.104377 0.067137 -1.010951
vn 0.0965 -0.9638 0.2484
vn 0.2859 -0.9296 0.2327
vn 0.4642 -0.8624 0.2021
vn 0.6247 -0.7648 0.1576
vn 0.7612 -0.6406 0.1009
vn 0.8685 -0.4946 0.0343
vn 0.9423 -0.3323 -0.0397
vn 0.9800 -0.1600 -0.1183
vn 0.9800 0.0156 -0.1984
vn 0.9423 0.1879 -0.2770
vn 0.8685 0.3501 -0.3510
vn 0.7612 0.4962 -0.4176
vn 0.6247 0.6204 -0.4742
vn 0.4642 0.7179 -0.5187
vn 0.2859 0.7852 -0.5494
vn 0.0965 0.8194 -0.5650
vn -0.0965 0.8194 -0.5650
vn -0.2859 0.7852 -0.5494
vn -0.4642 0.7179 -0.5187
vn -0.6247 0.6204 -0.4742
vn -0.7612 0.4962 -0.4176
vn -0.8685 0.3501 -0.3510
vn -0.9423 0.1879 -0.2770
vn -0.9800 0.0156 -0.1984
vn -0.9800 -0.1600 -0.1183
vn -0.9423 -0.3323 -0.0397
vn -0.8685 -0.4946 0.0343
vn -0.7612 -0.6406 0.1009
vn -0.6247 -0.7648 0.1576
vn -0.4642 -0.8624 0.2021
vn -0.0000 0.4150 0.9098
vn -0.2859 -0.9296 0.2327
vn -0.0965 -0.9638 0.2484
vt 0.250000 0.490000
vt 0.250000 0.250000
vt 0.296822 0.485388
vt 0.341844 0.471731
vt 0.383337 0.449553
vt 0.419706 0.419706
vt 0.449553 0.383337
vt 0.471731 0.341844
vt 0.485388 0.296822
vt 0.490000 0.250000
vt 0.485388 0.203178
vt 0.471731 0.158156
vt 0.449553 0.116663
vt 0.419706 0.080294
vt 0.383337 0.050447
vt 0.341844 0.028269
vt 0.296822 0.014612
vt 0.250000 0.010000
vt 0.203178 0.014612
vt 0.158156 0.028269
vt 0.116663 0.050447
vt 0.080294 0.080294
vt 0.050447 0.116663
vt 0.028269 0.158156
vt 0.014612 0.203178
vt 0.010000 0.250000
vt 0.014612 0.296822
vt 0.028269 0.341844
vt 0.050447 0.383337
vt 0.080294 0.419706
vt 0.116663 0.449553
vt 0.158156 0.471731
vt 0.750000 0.490000
vt 0.796822 0.485388
vt 0.841844 0.471731
vt 0.883337 0.449553
vt 0.919706 0.419706
vt 0.949553 0.383337
vt 0.971731 0.341844
vt 0.985388 0.296822
vt 0.990000 0.250000
vt 0.985388 0.203178
vt 0.971731 0.158156
vt 0.949553 0.116663
vt 0.919706 0.080294
vt 0.883337 0.050447
vt 0.841844 0.028269
vt 0.796822 0.014612
vt 0.750000 0.010000
vt 0.703178 0.014612
vt 0.658156 0.028269
vt 0.616663 0.050447
vt 0.580294 0.080294
vt 0.550447 0.116663
vt 0.528269 0.158156
vt 0.514612 0.203178
vt 0.510000 0.250000
vt 0.514612 0.296822
vt 0.528269 0.341844
vt 0.550447 0.383337
vt 0.580294 0.419706
vt 0.616663 0.449553
vt 0.658156 0.471731
vt 0.703178 0.485388
vt 0.203178 0.485388
s 0
usemtl Material.004
f 187/359/143 219/360/143 188/361/143
f 188/361/144 219/360/144 189/362/144
f 189/362/145 219/360/145 190/363/145
f 190/363/146 219/360/146 191/364/146
f 191/364/147 219/360/147 192/365/147
f 192/365/148 219/360/148 193/366/148
f 193/366/149 219/360/149 194/367/149
f 194/367/150 219/360/150 195/368/150
f 195/368/151 219/360/151 196/369/151
f 196/369/152 219/360/152 197/370/152
f 197/370/153 219/360/153 198/371/153
f 198/371/154 219/360/154 199/372/154
f 199/372/155 219/360/155 200/373/155
f 200/373/156 219/360/156 201/374/156
f 201/374/157 219/360/157 202/375/157
f 202/375/158 219/360/158 203/376/158
f 203/376/159 219/360/159 204/377/159
f 204/377/160 219/360/160 205/378/160
f 205/378/161 219/360/161 206/379/161
f 206/379/162 219/360/162 207/380/162
f 207/380/163 219/360/163 208/381/163
f 208/381/164 219/360/164 209/382/164
f 209/382/165 219/360/165 210/383/165
f 210/383/166 219/360/166 211/384/166
f 211/384/167 219/360/167 212/385/167
f 212/385/168 219/360/168 213/386/168
f 213/386/169 219/360/169 214/387/169
f 214/387/170 219/360/170 215/388/170
f 215/388/171 219/360/171 216/389/171
f 216/389/172 219/360/172 217/390/172
f 187/391/173 188/392/173 189/393/173 190/394/173 191/395/173 192/396/173 193/397/173 194/398/173 195/399/173 196/400/173 197/401/173 198/402/173 199/403/173 200/404/173 201/405/173 202/406/173 203/407/173 204/408/173 205/409/173 206/410/173 207/411/173 208/412/173 209/413/173 210/414/173 211/415/173 212/416/173 213/417/173 214/418/173 215/419/173 216/420/173 217/421/173 218/422/173
f 217/390/174 219/360/174 218/423/174
f 218/423/175 219/360/175 187/359/175
